<?xml version="1.0" standalone="no"?>
<!DOCTYPE svg PUBLIC "-//W3C//DTD SVG 20010904//EN"
 "http://www.w3.org/TR/2001/REC-SVG-20010904/DTD/svg10.dtd">
<svg version="1.0" xmlns="http://www.w3.org/2000/svg"
 width="287.000000pt" height="287.000000pt" viewBox="0 0 287.000000 287.000000"
 preserveAspectRatio="xMidYMid meet">
<metadata>
Created by potrace 1.14, written by Peter Selinger 2001-2017
</metadata>
<g transform="translate(0.000000,287.000000) scale(0.100000,-0.100000)"
fill="#000000" stroke="none">
<path d="M1230 2617 c0 -8 3 -17 8 -20 4 -2 1 -2 -5 -1 -7 2 -13 -2 -13 -8 0
-8 -6 -6 -16 4 -15 15 -18 15 -41 -6 -13 -13 -39 -23 -60 -24 -20 -2 -42 -7
-49 -13 -7 -5 -22 -12 -35 -14 -12 -3 -26 -10 -31 -17 -4 -7 -8 -9 -8 -4 0 6
-6 1 -14 -9 -8 -11 -12 -23 -9 -28 2 -4 0 -6 -6 -5 -5 2 -17 -6 -26 -17 -9
-11 -14 -14 -10 -7 5 10 1 10 -19 0 -14 -6 -26 -16 -26 -21 0 -5 6 -4 14 2 10
8 16 9 21 1 4 -6 3 -10 -2 -9 -4 1 -10 0 -13 -1 -3 -1 -14 -3 -25 -6 -11 -2
-35 -6 -52 -10 -19 -4 -33 -12 -33 -21 0 -8 5 -11 12 -7 7 4 8 3 4 -4 -4 -7
-2 -12 5 -12 7 0 9 -3 6 -7 -4 -3 -15 2 -26 11 -12 11 -21 14 -26 7 -3 -6 -1
-11 4 -11 6 0 11 -5 11 -11 0 -5 -5 -7 -12 -3 -8 5 -9 2 -5 -10 4 -10 3 -15
-3 -11 -6 3 -10 1 -10 -5 0 -6 -5 -8 -12 -4 -7 4 -8 3 -4 -4 4 -7 15 -12 24
-13 12 0 11 -3 -5 -9 -20 -8 -21 -13 -13 -36 9 -23 8 -25 -4 -15 -12 10 -14 6
-12 -22 1 -21 -4 -34 -11 -35 -7 -1 -20 -3 -29 -4 -9 -1 -19 -10 -22 -20 -2
-10 -9 -18 -14 -18 -5 0 -7 -4 -4 -9 3 -5 -1 -11 -8 -14 -18 -7 -42 18 -26 28
5 3 10 1 10 -6 0 -7 3 -10 6 -6 3 3 3 11 -1 17 -5 8 -11 8 -21 -1 -7 -6 -12
-15 -9 -19 3 -5 1 -11 -5 -15 -6 -4 -8 -11 -4 -16 3 -6 12 -5 22 3 13 11 15
10 9 -4 -7 -21 3 -23 22 -5 11 10 12 9 7 -1 -4 -7 -2 -20 6 -29 11 -15 11 -16
-6 -10 -16 6 -17 5 -6 -8 12 -14 7 -19 -13 -16 -5 1 -6 -3 -3 -8 10 -15 -13
-24 -29 -11 -10 8 -15 8 -21 -1 -4 -7 -3 -9 4 -5 6 3 13 2 16 -3 4 -5 2 -12
-3 -16 -6 -3 -7 -13 -4 -22 4 -10 2 -14 -5 -9 -6 3 -13 2 -17 -4 -3 -5 0 -10
7 -10 9 0 9 -3 -2 -10 -12 -7 -12 -10 -1 -10 7 0 11 -6 7 -15 -3 -8 -2 -14 2
-14 19 3 23 -2 12 -16 -7 -8 -9 -15 -4 -15 5 0 10 -19 12 -42 1 -23 7 -47 12
-53 5 -6 9 -20 9 -30 2 -72 17 -124 42 -146 11 -9 19 -24 19 -33 0 -9 4 -16 9
-16 4 0 8 -10 7 -22 -1 -17 -10 -26 -33 -32 -26 -8 -33 -16 -35 -40 -2 -17 0
-40 3 -51 46 -143 53 -163 92 -243 23 -47 89 -112 95 -93 2 6 7 9 12 6 5 -3
14 0 22 7 16 16 42 22 34 9 -4 -5 -2 -12 3 -15 4 -3 11 -20 15 -37 6 -32 73
-180 85 -189 4 -3 18 -21 31 -40 13 -19 34 -44 46 -55 19 -17 51 -105 38 -105
-3 0 0 -10 7 -21 9 -17 8 -20 -2 -14 -8 6 -10 4 -4 -4 4 -7 9 -43 12 -80 2
-36 5 -71 7 -77 9 -26 -168 -96 -222 -87 -13 1 -21 0 -19 -4 3 -5 -19 -8 -49
-8 -30 0 -54 -4 -54 -10 0 -5 -5 -3 -10 5 -7 12 -10 12 -10 1 0 -7 -6 -11 -15
-8 -8 4 -17 2 -20 -4 -4 -5 -11 -7 -16 -4 -5 4 -9 2 -9 -4 0 -5 -9 -8 -20 -6
-11 2 -20 0 -20 -4 0 -4 -12 -8 -27 -9 -97 -6 -131 -9 -140 -15 -6 -4 -30 -8
-52 -9 -23 -1 -41 -5 -41 -10 0 -4 -9 -8 -20 -8 -11 0 -20 -5 -20 -11 0 -5 -4
-7 -10 -4 -5 3 -10 1 -10 -5 0 -6 -4 -8 -10 -5 -5 3 -10 2 -10 -4 0 -5 -9 -8
-20 -6 -13 2 -18 0 -14 -7 4 -6 1 -9 -7 -6 -8 3 -20 -1 -27 -9 -8 -7 -18 -10
-24 -7 -7 4 -8 2 -4 -4 4 -7 1 -12 -8 -12 -9 0 -16 -4 -16 -10 0 -5 -9 -10
-20 -10 -11 0 -20 -4 -20 -10 0 -5 -6 -10 -13 -10 -14 0 -63 -47 -61 -58 2
-13 -19 -51 -25 -47 -4 2 -8 -5 -8 -16 -2 -19 21 -19 1388 -19 l1389 0 0 99
c0 110 4 105 -95 125 -5 1 -16 5 -23 10 -7 4 -19 3 -27 -4 -8 -7 -15 -7 -19
-1 -4 5 -16 7 -29 5 -79 -18 -133 -19 -154 -1 -7 5 -13 6 -13 2 0 -4 -6 -3
-12 2 -7 5 -22 9 -33 9 -11 -1 -26 4 -32 11 -7 6 -22 9 -33 6 -11 -3 -20 -1
-20 4 0 5 -6 10 -12 10 -37 3 -79 11 -85 16 -3 4 -17 7 -29 7 -13 0 -26 5 -29
10 -4 6 -10 8 -15 5 -5 -3 -14 1 -22 8 -7 8 -21 13 -31 11 -9 -1 -19 2 -23 7
-3 5 -10 7 -15 4 -5 -4 -9 -2 -9 4 0 6 -7 8 -15 5 -8 -4 -15 -1 -15 5 0 6 -3
10 -7 9 -14 -4 -53 13 -53 23 0 5 -6 9 -14 9 -8 0 -18 9 -21 20 -3 11 -11 20
-16 20 -5 0 -8 3 -7 7 0 5 -7 26 -17 48 -10 22 -22 58 -27 80 -11 46 -19 385
-10 400 8 13 11 28 18 90 3 28 7 59 9 70 2 11 4 39 4 61 1 32 5 43 20 47 11 2
24 0 29 -5 20 -20 59 4 91 56 24 40 33 69 37 117 3 35 7 84 10 109 10 93 11
130 3 130 -5 0 -6 6 -4 13 2 6 -5 23 -16 36 -18 22 -23 23 -41 12 -14 -9 -18
-9 -13 -1 4 7 -5 4 -20 -6 -36 -23 -61 -28 -45 -9 7 8 9 19 5 25 -3 5 -1 10 6
10 7 0 9 3 6 7 -4 3 -2 12 4 20 6 7 8 13 4 13 -5 0 0 9 9 19 11 12 14 21 7 26
-8 4 -8 12 -1 25 7 13 6 20 -3 23 -9 4 -9 6 0 6 7 1 10 8 7 16 -4 9 0 15 7 15
11 0 11 3 -1 10 -11 7 -11 10 -2 10 7 0 11 4 8 8 -3 5 -6 45 -7 90 -2 45 -7
82 -12 82 -5 0 -4 6 2 14 9 11 8 17 -2 28 -7 7 -12 19 -9 27 3 8 0 11 -7 7 -7
-5 -11 2 -11 18 0 14 -5 26 -11 26 -8 0 -8 4 0 14 9 11 8 15 -4 20 -9 3 -14
10 -11 14 3 5 -4 15 -15 22 -10 8 -19 18 -19 22 0 4 -26 34 -57 67 -79 83 -83
88 -83 106 0 9 -4 14 -9 11 -5 -3 -11 1 -15 9 -3 8 -12 15 -21 15 -8 0 -15 5
-15 12 0 6 -3 8 -7 5 -3 -4 -12 -2 -20 4 -23 20 -131 29 -163 15 -9 -4 -30 7
-55 29 -22 19 -44 35 -50 36 -60 5 -127 4 -131 -3 -3 -5 -12 -4 -20 3 -11 9
-14 8 -14 -4z"/>
<path d="M1200 2610 c0 -5 5 -10 10 -10 6 0 10 5 10 10 0 6 -4 10 -10 10 -5 0
-10 -4 -10 -10z"/>
<path d="M580 2076 c0 -2 8 -10 18 -17 15 -13 16 -12 3 4 -13 16 -21 21 -21
13z"/>
</g>
</svg>
