<?xml version="1.0" standalone="no"?>
<!DOCTYPE svg PUBLIC "-//W3C//DTD SVG 20010904//EN"
 "http://www.w3.org/TR/2001/REC-SVG-20010904/DTD/svg10.dtd">
<svg version="1.0" xmlns="http://www.w3.org/2000/svg"
 width="517.000000pt" height="517.000000pt" viewBox="0 0 517.000000 517.000000"
 preserveAspectRatio="xMidYMid meet">
<metadata>
Created by potrace 1.14, written by Peter Selinger 2001-2017
</metadata>
<g transform="translate(0.000000,517.000000) scale(0.100000,-0.100000)"
fill="#000000" stroke="none">
<path d="M2350 4815 c6 -7 3 -11 -10 -11 -10 0 -16 5 -14 11 3 5 -1 2 -9 -7
-11 -14 -16 -15 -26 -5 -10 9 -12 9 -9 -3 2 -8 -3 -15 -9 -16 -7 -1 -16 -3
-20 -4 -5 -1 -12 -2 -16 -1 -5 1 -6 -3 -2 -8 3 -6 -6 -13 -20 -17 -13 -3 -22
-10 -19 -15 5 -8 -9 -13 -28 -10 -5 0 -8 -4 -8 -10 0 -5 -4 -7 -10 -4 -5 3
-10 0 -10 -7 0 -10 -2 -10 -9 1 -5 8 -11 9 -15 3 -3 -6 -17 -9 -31 -7 -14 1
-25 -2 -25 -7 0 -5 -4 -6 -10 -3 -5 3 -10 1 -10 -5 0 -6 -4 -8 -10 -5 -5 3
-10 1 -10 -4 0 -6 -9 -11 -20 -11 -11 0 -20 -4 -20 -10 0 -5 -7 -7 -15 -4 -8
4 -15 2 -15 -3 0 -5 -14 -17 -30 -27 -17 -9 -28 -22 -24 -27 3 -5 0 -8 -8 -7
-7 2 -12 -3 -10 -11 3 -12 0 -12 -12 -1 -12 9 -16 9 -16 1 0 -7 -5 -9 -12 -5
-7 5 -9 2 -6 -8 5 -11 0 -15 -15 -14 -13 1 -21 -4 -19 -12 1 -8 -2 -11 -7 -8
-5 4 -12 2 -16 -4 -4 -6 -11 -8 -16 -5 -5 4 -9 1 -9 -5 0 -6 -4 -8 -10 -5 -5
3 -10 1 -10 -4 0 -6 -9 -11 -21 -11 -11 0 -17 -4 -14 -10 4 -6 -1 -7 -11 -3
-14 5 -16 3 -11 -12 6 -14 5 -16 -7 -6 -11 9 -15 8 -20 -4 -3 -10 -11 -13 -18
-9 -9 5 -8 2 1 -10 8 -9 10 -16 5 -15 -21 4 -35 -2 -29 -11 3 -5 1 -10 -5 -10
-7 0 -10 -7 -6 -15 3 -8 2 -14 -2 -14 -19 3 -30 -2 -36 -17 -6 -15 -4 -15 10
-3 16 13 16 12 4 -8 -8 -12 -18 -19 -22 -17 -4 3 -9 -1 -10 -8 0 -7 -2 -17 -3
-23 -2 -5 -3 -16 -4 -23 0 -7 -5 -10 -11 -7 -5 3 -10 -3 -10 -14 0 -15 -4 -19
-17 -14 -11 5 -14 3 -8 -6 10 -17 -15 -33 -31 -20 -8 6 -13 5 -17 -5 -3 -9
-16 -13 -31 -12 -18 2 -26 -2 -26 -13 0 -14 -2 -14 -10 -1 -6 10 -10 11 -10 3
0 -7 -7 -13 -15 -13 -8 0 -15 -5 -15 -11 0 -6 -5 -9 -12 -7 -7 3 -27 -11 -45
-29 -19 -18 -39 -33 -45 -33 -6 0 -8 -3 -5 -7 4 -3 1 -13 -6 -21 -9 -13 -9
-14 0 -8 9 5 11 2 7 -8 -3 -9 -10 -14 -14 -11 -5 3 -6 -4 -3 -15 3 -11 10 -17
15 -14 5 3 8 -2 6 -12 -2 -11 2 -18 9 -17 7 2 10 -3 8 -10 -3 -7 5 -17 17 -22
13 -6 22 -16 21 -23 -2 -7 3 -12 11 -12 21 0 40 -26 25 -36 -7 -4 -9 -3 -5 4
3 6 2 13 -3 17 -6 3 -8 -3 -6 -14 2 -10 -3 -27 -11 -38 -9 -10 -12 -12 -8 -4
4 9 3 12 -4 7 -6 -4 -8 -14 -5 -23 4 -11 3 -14 -5 -9 -7 4 -12 1 -12 -8 0 -10
6 -13 18 -10 13 5 14 4 3 -4 -8 -6 -19 -8 -26 -6 -7 3 -11 -7 -11 -25 0 -32
12 -36 34 -11 11 13 11 12 3 -7 -6 -12 -16 -24 -23 -26 -8 -4 -7 -6 4 -6 9 -1
20 -5 23 -11 4 -6 -1 -7 -11 -3 -14 5 -15 3 -5 -15 7 -12 14 -22 17 -22 3 0 2
5 -1 10 -3 6 -4 10 -1 10 3 0 10 -10 17 -21 8 -15 8 -19 0 -15 -6 4 -11 2 -11
-3 0 -6 4 -11 8 -11 5 0 9 -7 9 -15 0 -8 -5 -15 -11 -15 -6 0 -5 -4 2 -9 8 -4
13 -11 13 -15 -4 -30 0 -46 12 -40 8 5 8 2 -2 -9 -11 -14 -11 -17 0 -17 9 0
10 -3 4 -8 -13 -9 -13 -52 0 -72 5 -8 8 -23 7 -32 -2 -10 2 -18 8 -18 6 0 8
-5 4 -11 -3 -6 -1 -15 7 -19 16 -10 22 -42 6 -34 -7 3 -3 -2 7 -10 19 -15 19
-16 1 -16 -18 0 -18 -1 1 -16 10 -8 14 -13 8 -10 -7 3 -5 -8 4 -29 9 -19 19
-32 24 -29 4 3 8 0 8 -5 0 -6 -6 -11 -12 -11 -7 -1 -3 -6 9 -13 21 -12 23 -15
23 -38 0 -5 5 -7 10 -4 6 3 10 -3 10 -15 0 -12 4 -18 10 -15 7 4 7 -3 0 -20
-6 -17 -7 -24 0 -20 6 3 7 -1 4 -9 -3 -9 -11 -13 -17 -9 -6 4 -8 0 -4 -11 4
-9 3 -15 -2 -12 -5 3 -11 -1 -15 -9 -3 -8 -12 -12 -20 -9 -15 6 -40 -28 -29
-40 3 -3 0 -6 -8 -6 -11 0 -11 -2 1 -10 8 -5 10 -10 4 -10 -7 0 -10 -13 -8
-32 3 -18 6 -42 7 -53 1 -11 5 -23 9 -26 5 -3 9 -17 10 -32 1 -17 8 -27 18
-27 11 0 12 -2 3 -8 -10 -7 -10 -12 1 -27 8 -11 12 -25 9 -32 -3 -7 0 -13 6
-13 6 0 8 -7 5 -15 -4 -8 1 -17 10 -21 9 -3 14 -10 11 -14 -8 -13 27 -80 38
-73 6 3 7 1 3 -5 -3 -6 5 -23 19 -38 14 -15 25 -32 25 -38 0 -6 9 -22 20 -36
11 -14 20 -30 20 -37 0 -21 48 -65 61 -57 7 4 9 3 5 -4 -4 -7 1 -10 14 -9 11
1 20 5 20 10 0 4 4 5 10 2 5 -3 20 1 32 9 14 10 27 12 38 6 10 -5 19 -7 22 -5
2 2 5 -5 6 -15 4 -44 6 -50 14 -50 5 0 6 -4 3 -10 -3 -5 0 -10 7 -10 9 0 9 -3
-2 -10 -12 -7 -12 -10 -1 -10 7 0 11 -6 8 -14 -3 -8 -2 -16 3 -18 5 -2 11 -13
13 -26 2 -13 8 -27 13 -30 5 -4 10 -14 12 -22 2 -8 11 -24 20 -34 9 -11 12
-16 5 -13 -7 5 -6 -4 3 -23 9 -16 19 -30 24 -30 5 0 6 -7 3 -17 -4 -11 -3 -14
5 -9 7 4 12 1 12 -8 0 -8 10 -22 22 -30 12 -9 18 -16 13 -16 -6 0 -2 -7 8 -14
10 -8 19 -18 19 -23 2 -15 25 -32 33 -25 5 4 5 2 2 -5 -9 -15 2 -45 14 -37 8
5 10 -2 8 -23 0 -4 9 -11 21 -15 12 -4 18 -12 15 -18 -3 -6 1 -13 10 -16 13
-6 14 -8 3 -15 -9 -6 -10 -9 -1 -9 7 0 10 -7 6 -17 -4 -10 -2 -14 4 -10 7 5
10 -5 7 -28 -2 -23 1 -33 7 -29 7 4 6 -3 -1 -16 -11 -20 -10 -22 4 -17 12 5
15 3 9 -6 -4 -6 -6 -25 -4 -42 2 -16 4 -39 5 -50 1 -11 5 -26 9 -32 5 -7 4
-13 -2 -13 -7 0 -7 -8 -1 -26 13 -34 13 -47 -2 -38 -10 6 -10 4 0 -8 7 -8 11
-24 9 -35 -3 -23 -32 -55 -41 -46 -3 4 -6 1 -6 -6 0 -7 -4 -9 -10 -6 -5 3 -10
2 -10 -3 0 -10 -70 -48 -82 -44 -5 1 -8 -3 -8 -8 0 -6 -9 -10 -21 -10 -11 0
-18 -4 -15 -9 4 -5 -2 -8 -11 -7 -10 2 -21 -2 -25 -8 -6 -8 -8 -8 -8 1 0 8
-16 6 -50 -7 -28 -10 -47 -14 -44 -8 4 6 -1 6 -14 -1 -15 -8 -22 -8 -25 2 -4
9 -6 9 -6 -1 -1 -7 -5 -10 -11 -7 -5 3 -10 1 -10 -4 0 -6 -5 -11 -11 -11 -5 0
-7 5 -4 10 3 5 1 10 -4 10 -6 0 -11 -5 -11 -10 0 -7 -6 -7 -18 -1 -10 5 -24 6
-30 2 -7 -4 -27 -7 -45 -6 -17 1 -40 -2 -51 -7 -14 -8 -17 -7 -11 3 6 9 3 11
-9 6 -10 -4 -20 -7 -22 -7 -3 0 -3 -4 0 -8 3 -4 -8 -7 -25 -6 -16 1 -29 -3
-29 -9 0 -7 -5 -5 -10 3 -5 8 -10 10 -10 3 0 -6 -11 -10 -25 -8 -14 1 -25 -1
-25 -5 0 -5 -9 -6 -20 -3 -11 3 -26 0 -34 -6 -10 -8 -16 -9 -21 -1 -3 5 -12
10 -18 10 -7 0 -6 -4 3 -11 11 -8 7 -9 -18 -6 -26 3 -32 1 -27 -11 4 -11 2
-12 -7 -5 -16 13 -68 14 -68 2 0 -5 -7 -5 -17 -2 -11 5 -14 3 -8 -6 6 -10 3
-11 -14 -2 -16 9 -21 9 -21 -1 0 -9 -3 -9 -10 2 -7 11 -10 11 -10 2 0 -7 -4
-11 -9 -7 -5 3 -16 -2 -25 -10 -9 -9 -17 -11 -21 -5 -4 6 -14 2 -26 -9 -12
-11 -29 -17 -40 -14 -12 3 -19 0 -19 -8 0 -11 -2 -11 -10 1 -8 12 -10 12 -16
-3 -3 -9 -10 -14 -15 -11 -5 3 -9 0 -9 -6 0 -6 -4 -9 -9 -5 -6 3 -14 -3 -20
-12 -6 -11 -11 -13 -11 -5 0 7 -5 10 -10 7 -6 -4 -7 -12 -3 -18 4 -7 -2 -5
-12 3 -11 9 -16 10 -11 2 4 -7 1 -12 -8 -12 -9 0 -16 -4 -16 -10 0 -5 -3 -10
-7 -9 -15 2 -53 -14 -53 -22 0 -4 -10 -13 -21 -20 -15 -7 -19 -8 -15 0 5 7 1
9 -8 5 -9 -3 -13 -10 -10 -15 3 -5 -1 -9 -10 -9 -8 0 -17 -6 -19 -12 -4 -10
-6 -10 -6 0 -1 10 -4 10 -15 0 -8 -7 -11 -17 -8 -22 3 -5 -1 -6 -8 -1 -8 5
-18 1 -27 -10 -7 -11 -13 -13 -13 -6 0 7 -4 10 -10 6 -5 -3 -8 -11 -6 -18 1
-7 1 -9 -1 -4 -8 13 -25 7 -20 -7 4 -11 1 -13 -10 -9 -11 4 -14 3 -9 -5 4 -7
1 -15 -8 -18 -9 -3 -13 -10 -10 -15 3 -5 0 -9 -6 -9 -6 0 -8 -4 -5 -10 3 -5 1
-10 -5 -10 -6 0 -8 -4 -5 -10 3 -5 1 -10 -6 -10 -7 0 -10 -3 -6 -6 3 -4 -1
-13 -9 -21 -8 -8 -12 -18 -9 -23 3 -4 -7 -11 -21 -14 -15 -4 -24 -10 -20 -13
3 -4 -8 -13 -25 -20 -19 -8 -28 -17 -23 -24 4 -8 3 -9 -4 -5 -7 4 -12 2 -12
-5 0 -7 -3 -10 -6 -6 -8 7 -34 -17 -34 -32 0 -6 -12 -14 -26 -17 -19 -5 -22
-9 -12 -15 10 -7 9 -9 -3 -9 -9 0 -20 -7 -23 -16 -3 -8 -11 -12 -16 -9 -6 4
-9 2 -8 -2 2 -5 -16 -28 -40 -50 l-42 -41 0 -236 0 -236 2415 0 2415 0 0 443
c0 424 -1 443 -19 459 -11 9 -22 14 -25 11 -3 -4 -6 1 -6 11 0 9 -4 14 -10 11
-5 -3 -10 -2 -10 3 0 6 -13 15 -30 21 -16 5 -30 14 -30 20 0 5 -9 8 -20 6 -11
-2 -18 0 -15 4 5 10 -74 45 -82 37 -3 -3 -12 2 -21 10 -12 13 -16 13 -23 2 -7
-10 -9 -10 -9 1 0 8 -3 11 -7 8 -3 -4 -13 -1 -21 6 -13 10 -15 9 -8 -3 4 -8 0
-6 -8 4 -12 15 -16 16 -16 5 0 -9 -3 -10 -8 -3 -10 15 -244 6 -270 -10 -6 -3
-13 0 -15 6 -4 8 -6 9 -6 2 -1 -8 -14 -7 -43 3 -55 19 -78 25 -105 26 -13 1
-23 4 -23 7 0 3 -14 7 -32 8 -18 2 -35 6 -38 10 -3 4 -14 8 -25 10 -42 6 -60
10 -60 12 0 1 -16 4 -35 7 -19 2 -37 8 -40 12 -3 3 -15 6 -27 5 -13 -1 -23 2
-23 7 0 5 -7 6 -15 3 -8 -4 -15 -1 -15 6 0 6 -4 9 -9 5 -5 -3 -20 -1 -33 4
-32 13 -62 24 -68 25 -3 1 -10 5 -17 9 -6 4 -23 8 -37 9 -14 1 -26 6 -26 10 0
4 -9 8 -19 8 -11 0 -23 5 -27 11 -4 8 -9 7 -15 -2 -7 -12 -9 -12 -9 0 0 8 -7
11 -20 8 -11 -3 -18 -1 -15 3 3 5 -9 11 -25 15 -17 4 -36 15 -43 26 -6 10 -18
19 -25 19 -7 0 -15 7 -19 16 -3 8 -12 13 -20 10 -8 -3 -12 -2 -9 3 3 5 -4 20
-15 35 -11 14 -18 26 -14 26 3 0 -3 13 -14 29 -11 15 -18 31 -14 35 3 3 1 6
-5 6 -7 0 -11 3 -11 8 4 21 -2 32 -13 26 -10 -5 -10 -4 -1 6 10 11 9 18 -5 34
-10 12 -12 16 -3 11 11 -6 13 -4 6 11 -4 10 -7 27 -7 36 0 10 -3 20 -8 23 -5
3 -7 12 -4 19 3 8 1 17 -5 20 -6 4 -6 18 -1 36 6 21 5 30 -3 30 -7 0 -6 4 3
10 8 5 11 10 5 10 -6 0 -10 30 -10 70 0 39 -3 70 -7 70 -4 0 -3 11 2 25 6 16
6 25 0 25 -6 0 -6 9 0 24 6 17 5 26 -3 30 -9 5 -9 7 1 12 6 3 9 10 6 15 -9 15
-12 59 -4 54 4 -2 6 15 6 38 -1 23 2 50 6 59 5 9 4 19 -2 23 -6 4 -5 14 4 28
13 21 27 89 31 152 1 17 5 66 9 110 4 44 9 105 11 135 5 74 19 109 42 106 10
-2 25 1 33 6 8 4 27 12 43 18 26 9 117 133 117 160 0 6 11 32 25 59 13 27 21
51 18 55 -4 3 -2 6 3 6 5 0 9 18 8 40 0 23 2 43 6 45 4 2 6 27 6 55 -1 27 4
50 9 50 6 0 4 4 -3 8 -7 5 -10 16 -6 25 4 11 1 17 -7 17 -7 0 -9 3 -6 7 4 3 1
13 -6 21 -10 13 -9 15 3 8 8 -4 6 0 -4 8 -15 12 -16 16 -5 16 8 1 3 7 -11 15
-14 7 -24 17 -22 22 1 4 -6 8 -15 8 -10 0 -24 4 -30 8 -9 6 -11 3 -6 -9 4 -12
3 -15 -6 -10 -6 4 -18 2 -26 -4 -8 -7 -15 -9 -15 -4 0 4 -7 -1 -16 -12 -8 -10
-12 -12 -8 -4 6 12 4 12 -12 -1 -13 -12 -25 -14 -39 -8 -18 9 -18 9 3 5 12 -2
22 0 22 5 0 5 -6 9 -14 9 -8 0 -18 4 -21 10 -4 6 1 7 11 3 11 -4 15 -3 10 5
-3 6 2 16 11 22 14 9 15 11 2 7 -15 -5 -15 -1 -6 28 5 19 13 32 17 30 4 -2 6
6 5 18 -3 28 5 48 15 42 10 -6 8 15 -3 33 -5 7 -4 12 2 12 6 0 11 5 11 11 0 5
-3 8 -7 6 -5 -3 -8 5 -8 18 0 16 4 20 11 14 8 -7 10 1 7 27 -3 27 -1 34 9 28
10 -6 10 -5 0 8 -10 13 -10 17 0 21 10 4 9 6 -1 6 -11 1 -10 5 5 16 13 10 14
14 5 15 -10 0 -11 3 -2 14 9 11 9 15 -1 19 -10 4 -10 6 1 6 11 1 11 4 0 18 -8
9 -9 14 -3 10 6 -3 11 0 11 8 0 8 -4 12 -9 9 -4 -3 -8 -1 -8 5 0 5 5 13 10 16
14 9 2 27 -13 19 -7 -3 -4 1 6 9 12 10 15 17 7 22 -8 5 -8 11 -1 19 7 9 7 16
-1 24 -6 6 -12 21 -12 34 -2 31 -15 50 -29 41 -7 -4 -6 0 2 10 7 9 9 17 3 17
-5 0 -9 18 -8 40 2 25 -2 41 -11 44 -7 3 -13 9 -12 13 4 22 -2 34 -13 27 -10
-6 -10 -4 -2 7 19 26 0 69 -33 72 -12 0 -20 5 -17 9 3 4 12 4 21 1 13 -5 13
-3 -3 14 -10 11 -23 18 -28 15 -5 -3 -6 2 -3 12 4 10 1 19 -8 22 -8 3 -17 14
-20 25 -4 10 -13 19 -21 19 -8 0 -14 7 -14 15 0 8 -9 20 -20 27 -11 7 -20 18
-20 25 0 7 -6 13 -14 13 -8 0 -17 9 -21 19 -3 11 -13 22 -21 25 -9 3 -12 11
-8 18 5 8 2 9 -9 5 -9 -3 -16 -3 -16 1 3 20 -2 32 -15 32 -10 0 -13 7 -11 21
4 18 2 19 -11 8 -13 -11 -15 -10 -14 2 4 24 0 40 -7 36 -11 -7 -33 19 -25 29
4 4 2 4 -5 1 -16 -10 -44 3 -37 15 4 6 1 9 -7 6 -8 -3 -18 1 -24 8 -5 7 -19
14 -30 16 -11 2 -23 6 -26 10 -3 5 -17 9 -32 10 -15 1 -27 7 -27 13 0 5 -5 3
-10 -5 -7 -12 -10 -12 -10 -1 0 9 -8 11 -26 7 -19 -5 -24 -4 -18 6 5 7 -5 5
-20 -6 -16 -10 -26 -13 -22 -8 4 6 -2 10 -14 9 -11 -1 -20 -4 -20 -7 0 -4 -15
-6 -34 -6 -19 0 -33 2 -31 5 6 5 -22 31 -32 31 -5 0 -19 11 -31 25 -13 14 -27
23 -32 20 -6 -3 -10 -1 -10 5 0 7 -7 10 -15 6 -8 -3 -14 0 -12 6 1 5 -6 12
-16 13 -9 2 -14 -1 -11 -7 4 -6 -2 -8 -16 -3 -17 5 -21 4 -16 -6 5 -9 3 -9 -6
1 -16 19 -38 24 -38 9 0 -8 -5 -8 -15 1 -12 10 -15 10 -15 -1 0 -9 -3 -10 -8
-4 -8 11 -24 16 -64 19 -19 1 -24 -1 -18 -9z m1086 -620 c1 -8 -2 -15 -8 -15
-6 0 -8 6 -5 14 3 7 1 19 -4 25 -6 8 -5 8 3 1 6 -5 13 -17 14 -25z m29 -94 c3
-5 2 -12 -3 -15 -5 -3 -9 1 -9 9 0 17 3 19 12 6z m-2195 -325 c0 -3 -4 -8 -10
-11 -5 -3 -10 -1 -10 4 0 6 5 11 10 11 6 0 10 -2 10 -4z"/>
</g>
</svg>
